IKResults
version=1
nRows=5
nColumns=40
inDegrees=yes

Units are S.I. units (second, meters, Newtons, ...)
Angles are in degrees.

endheader
time	pelvis_tilt	pelvis_list	pelvis_rotation	pelvis_tx	pelvis_ty	pelvis_tz	hip_flexion_r	hip_adduction_r	hip_rotation_r	knee_angle_r	knee_angle_r_beta	ankle_angle_r	subtalar_angle_r	mtp_angle_r	hip_flexion_l	hip_adduction_l	hip_rotation_l	knee_angle_l	knee_angle_l_beta	ankle_angle_l	subtalar_angle_l	mtp_angle_l	lumbar_extension	lumbar_bending	lumbar_rotation	arm_flex_r	arm_add_r	arm_rot_r	elbow_flex_r	pro_sup_r	wrist_flex_r	wrist_dev_r	arm_flex_l	arm_add_l	arm_rot_l	elbow_flex_l	pro_sup_l	wrist_flex_l	wrist_dev_l
      0.83000000	     14.35221271	     -1.45205832	      4.58256445	     -0.68286063	      0.95358122	     -1.42408458	    -16.80954567	      5.25269479	    -21.75097484	    -11.95514588	     -0.20865666	      9.69164452	      5.60030719	     -4.42287729	     -3.94474882	      3.10904411	     -0.54933193	    -41.27009900	     -0.72029911	     14.49058665	     17.72925966	     10.06381091	    -23.01525237	      1.22087291	     -1.32641697	      2.77118678	    -10.79673997	      0.03588681	     27.61455156	     89.95437384	      0.00000000	      0.00000000	      4.76661007	      9.21845134	      3.27365701	     21.05598283	     89.95437384	      0.00000000	      0.00000000
      0.84000000	     15.08347450	     -1.05569819	      4.47287220	     -0.67626904	      0.95455480	     -1.42363598	    -18.44067719	      5.09379619	    -21.14888564	    -11.16966390	     -0.19494741	      9.52723647	      5.43103715	     -4.36475431	     -4.40943545	      2.72053221	     -0.26610808	    -39.30170791	     -0.68594420	     14.81814536	     17.69565344	     10.25647840	    -23.72526581	      0.79611800	     -1.12596788	      2.77726449	    -10.83802091	     -0.02054487	     28.22941421	     89.95437384	      0.00000000	      0.00000000	      4.34572988	      9.36835921	      2.58035048	     20.92773837	     89.95437384	      0.00000000	      0.00000000
      0.85000000	     14.91192506	     -1.01914371	      4.51536823	     -0.67088066	      0.95387560	     -1.42327254	    -18.54578871	      5.12569418	    -21.15474834	    -11.30806213	     -0.19736292	      9.72993078	      5.18306821	     -4.32035952	     -3.14946020	      2.80979379	      0.38241386	    -38.49338598	     -0.67183633	     14.98491730	     17.56914573	     10.12450286	    -23.55536637	      0.71996409	     -1.06580244	      3.02576438	    -10.84428856	      0.03226895	     28.46065496	     89.95437384	      0.00000000	      0.00000000	      3.97558235	      9.37869726	      2.43926119	     20.72326652	     89.95437384	      0.00000000	      0.00000000
      0.86000000	     15.19206834	     -0.70025005	      4.14050732	     -0.66444140	      0.95400740	     -1.42245675	    -19.40519910	      4.83954181	    -20.53954370	    -11.12130269	     -0.19410335	     10.00370865	      4.82660206	     -4.34627979	     -2.99496577	      2.55997747	      1.29527832	    -36.76220195	     -0.64162146	     15.28765613	     17.45835297	     10.14261247	    -23.74874366	      0.21766961	     -0.60116624	      3.03162760	    -10.91924214	      0.26234393	     28.89731682	     89.95437384	      0.00000000	      0.00000000	      3.64202648	      9.45339151	      1.80538279	     20.35192879	     89.95437384	      0.00000000	      0.00000000
      0.87000000	     15.02562613	     -0.69049618	      4.11968940	     -0.65931918	      0.95331163	     -1.42205870	    -19.48119290	      4.86661283	    -20.58373017	    -11.29043375	     -0.19705524	     10.19838323	      4.50854645	     -4.30093808	     -1.80741633	      2.71914019	      2.23275925	    -35.77613833	     -0.62441141	     15.30611287	     17.34658139	     10.03488780	    -23.61092244	      0.14619401	     -0.52024261	      3.32322742	    -10.91216031	      0.31447536	     29.18968932	     89.95437384	      0.00000000	      0.00000000	      3.29328148	      9.47621391	      1.59462992	     20.17368867	     89.95437384	      0.00000000	      0.00000000
